<svg xmlns="http://www.w3.org/2000/svg" width="111" height="73" viewBox="0 0 111 73" fill="none">
  <path fill-rule="evenodd" clip-rule="evenodd" d="M25.1248 20.8686L25.1259 20.8663L25.1316 20.8545C28.5168 13.9184 31.9045 6.97697 35.3084 0C37.6737 4.83889 40.0034 9.61287 42.3292 14.379C45.4511 20.7764 48.566 27.1596 51.7512 33.6666C55.4388 26.1456 58.966 18.9597 62.6893 11.3758C64.8375 15.7651 66.9455 20.0755 69.0467 24.3721L69.0552 24.3895L69.0658 24.4112C71.8023 30.0066 74.5274 35.5789 77.315 41.2715C80.0153 35.7913 82.6087 30.4998 85.3498 24.9068L86.632 22.2908C92.5497 34.4564 98.3802 46.4021 104.259 58.4468L107.707 65.5106C103.894 65.8248 100.777 64.4212 97.7304 62.9128C94.8463 61.4921 91.9954 59.9619 89.1453 58.4322C87.3302 57.458 85.5154 56.4839 83.6926 55.5384C82.5524 54.9518 81.3411 54.5956 80.1297 54.2395C76.1214 53.1082 72.7901 54.6375 69.5657 57.5077C67.5526 59.3094 65.1299 60.713 62.6893 61.5301C58.7344 62.8709 55.3319 60.5873 52.0184 58.2619C51.3252 57.7745 50.6341 57.2786 49.9427 56.7824C47.1867 54.8048 44.4237 52.8222 41.49 51.3484C36.8226 49.023 31.9414 49.7353 27.3453 51.9979C25.1756 53.059 23.0753 54.3169 20.9751 55.5746L20.9749 55.5748C19.3849 56.527 17.7951 57.4791 16.1756 58.3457C12.8086 60.1893 9.26355 61.5301 5.02369 62.0748C11.7835 48.2048 18.4492 34.5469 25.1248 20.8686ZM44.8391 47.8288C45.0576 47.3849 45.286 46.9244 45.5214 46.4498L45.5214 46.4497C46.5524 44.3707 47.7174 42.0213 48.7761 39.6164C49.0433 39.0298 48.8474 37.9195 48.5445 37.27C47.1685 34.3162 45.7322 31.3978 44.296 28.4794L44.2958 28.479L44.2944 28.476C43.8161 27.5041 43.3378 26.5322 42.8617 25.559C41.5817 22.9301 40.2968 20.3013 38.9845 17.6162L38.9835 17.6141C37.7757 15.1429 36.5447 12.6242 35.2727 10.0141C27.8975 25.14 20.6648 39.9726 13.4143 54.8051C13.4589 54.868 13.4989 54.9308 13.539 54.9937C13.5791 55.0565 13.6192 55.1194 13.6637 55.1822C13.839 55.1158 14.0196 55.0577 14.2011 54.9994L14.2011 54.9994C14.5915 54.874 14.9856 54.7473 15.3383 54.5328C16.4061 53.9049 17.462 53.2558 18.5169 52.6073L18.5172 52.6071L18.5174 52.607C20.0318 51.676 21.5442 50.7462 23.0876 49.8819C26.9355 47.7031 30.8904 45.5872 35.2549 45.9014C37.3586 46.0444 39.429 46.5486 41.6419 47.0874L41.642 47.0874C42.671 47.338 43.7308 47.5961 44.8391 47.8288ZM62.6714 21.4318C62.3707 22.0387 62.0801 22.6247 61.7975 23.1943L61.7973 23.1948C60.7242 25.358 59.7683 27.2851 58.8235 29.2252C55.5278 35.9711 52.2321 42.717 48.9187 49.442C48.3664 50.5523 48.2595 51.3274 49.3818 52.0607C50.2675 52.6276 51.1108 53.2692 51.9562 53.9124C52.4542 54.2912 52.9529 54.6706 53.4614 55.0356C55.7594 56.7116 58.3247 57.9476 60.9791 57.5496C66.3769 56.7535 70.8661 53.8414 73.948 48.3316C74.7319 46.9489 74.6962 45.7757 73.948 44.3092C72.2756 41.0413 70.6682 37.7297 69.0587 34.4138L69.0585 34.4134L69.0581 34.4124C68.4391 33.1372 67.8198 31.8613 67.1963 30.587C66.8511 29.8903 66.5059 29.1947 66.1579 28.4938L66.1513 28.4804C65.0471 26.256 63.9158 23.9767 62.6714 21.4318ZM99.2625 59.3094C99.3159 59.2361 99.3693 59.168 99.4228 59.0999L99.4231 59.0995C99.4764 59.0316 99.5298 58.9636 99.5831 58.8904C95.3076 50.1333 91.0321 41.3762 86.5963 32.3049L86.1796 33.1588L86.1774 33.1632C83.4327 38.7871 80.8668 44.0445 78.1879 49.5677C82.8279 50.475 86.8784 52.7909 90.89 55.0846C93.64 56.6569 96.3717 58.2188 99.2625 59.3094ZM99.9216 72.6379H0C0.124702 71.2342 0.855096 70.9828 1.81708 70.8571C8.46189 70.1029 14.6613 67.8613 20.5401 64.0274C23.9783 61.7858 27.755 59.9841 31.5673 58.8109C37.1433 57.093 42.3095 59.0623 47.0481 62.7914C49.4531 64.6978 51.9293 66.4786 54.4412 68.1336C58.966 71.1295 63.4197 70.4591 67.7486 67.4632L68.0017 67.2857L68.0018 67.2856C69.2037 66.443 70.4244 65.5872 71.4896 64.5302C74.5003 61.5134 77.9029 61.4296 81.3054 62.8542C83.9387 63.9602 86.4925 65.3153 89.0476 66.6711C90.1225 67.2414 91.1977 67.812 92.2792 68.3641C93.9776 69.2301 95.676 70.1147 97.3745 70.9993C98.2235 71.4415 99.0726 71.8837 99.9216 72.3236V72.6379ZM103.039 71.2025C105.373 72.229 107.92 72.2919 110.735 71.4539C110.551 71.087 110.38 70.7368 110.215 70.4007C109.74 69.4319 109.323 68.5809 108.847 67.7877C108.651 67.4524 108.134 67.2639 107.778 67.2639C102.736 67.3477 98.2648 65.0641 93.7934 62.7387C92.8883 62.2651 91.984 61.7848 91.0791 61.3041C87.7809 59.552 84.4747 57.7957 81.0917 56.349C77.7425 54.9034 74.3578 55.1548 71.4184 58.1088C70.2426 59.3029 68.9065 60.2666 67.5526 61.1675C63.3484 63.9538 58.9838 64.5823 54.6193 61.8378C51.9827 60.1828 49.4531 58.2554 46.9412 56.328C42.5767 52.997 37.9271 50.7134 32.6896 52.138C29.2318 53.0716 25.8613 54.7038 22.5609 56.3021L22.4641 56.349C20.7491 57.1825 19.077 58.1322 17.4058 59.0815C15.6744 60.065 13.9439 61.0479 12.1673 61.9007C10.5728 62.658 8.83318 63.0118 7.10738 63.3628C6.8279 63.4196 6.54878 63.4764 6.2707 63.5348C3.83012 64.0586 2.10211 66.1116 2.11992 68.9399C6.19945 68.3533 10.2612 67.5781 14.02 65.6507C16.0625 64.5987 18.0698 63.4515 20.0764 62.3048C22.585 60.871 25.0925 59.438 27.6659 58.1926C32.6362 55.7624 37.8202 55.3643 42.7905 58.2135C45.4095 59.7193 47.8977 61.5185 50.3815 63.3144C50.9387 63.7174 51.4958 64.1202 52.054 64.5194C55.2606 66.803 58.5563 69.1284 62.4042 67.8714C64.9161 67.0334 67.4636 65.6298 69.5479 63.7653C73.0395 60.6647 76.6558 59.2191 80.8779 60.7275C82.9249 61.4549 84.9111 62.4257 86.8867 63.3913C87.3009 63.5938 87.7147 63.796 88.1284 63.9957C89.8893 64.8418 91.6435 65.7143 93.3981 66.5869C96.596 68.1774 99.7953 69.7686 103.039 71.2025Z" fill="white"/>
</svg>